<?xml version="1.0" standalone="no"?>
<!DOCTYPE svg PUBLIC "-//W3C//DTD SVG 20010904//EN"
 "http://www.w3.org/TR/2001/REC-SVG-20010904/DTD/svg10.dtd">
<svg version="1.0" xmlns="http://www.w3.org/2000/svg"
 width="125.000000pt" height="65.000000pt" viewBox="0 0 125.000000 65.000000"
 preserveAspectRatio="xMidYMid meet">

<g transform="translate(0.000000,65.000000) scale(0.100000,-0.100000)"
fill="#000000" stroke="none">
<path d="M342 573 c-17 -3 -22 -10 -20 -26 2 -17 11 -23 39 -25 l36 -3 7 -91
c3 -50 6 -121 6 -158 0 -37 3 -88 6 -114 7 -45 8 -47 37 -44 l30 3 -3 130 c-3
72 -5 164 -5 205 l0 75 33 3 c26 3 32 7 32 28 0 24 -1 24 -87 23 -49 -1 -98
-4 -111 -6z"/>
<path d="M625 538 c-4 -24 -5 -118 -3 -210 3 -164 4 -168 28 -192 37 -36 112
-39 148 -6 32 30 39 76 46 273 l6 177 -34 0 -33 0 -7 -197 c-4 -118 -12 -203
-18 -211 -6 -7 -23 -12 -37 -10 l-26 3 -2 205 -2 205 -30 3 c-28 3 -30 1 -36
-40z"/>
<path d="M970 565 c0 -2 -12 -106 -26 -230 -14 -125 -24 -229 -22 -230 2 -2
17 -5 33 -7 l30 -3 11 92 c18 142 15 145 69 -52 15 -54 16 -55 51 -55 26 0 35
4 31 14 -3 7 -20 65 -37 128 l-32 114 55 99 c56 102 57 115 12 115 -15 0 -32
-23 -70 -92 -55 -103 -62 -100 -47 22 5 41 9 75 8 76 -4 4 -66 13 -66 9z"/>
<path d="M123 550 c-16 -7 -23 -18 -23 -37 0 -47 -20 -355 -25 -396 -5 -37 -5
-37 30 -37 34 0 35 1 35 39 0 46 2 48 55 52 38 4 39 3 48 -34 8 -34 12 -37 44
-37 29 0 34 3 31 18 -3 9 -34 113 -69 230 -68 228 -67 226 -126 202z m70 -222
c26 -103 25 -108 -24 -108 -18 0 -19 8 -19 118 1 133 7 132 43 -10z"/>
</g>
</svg>
