<?xml version="1.0" standalone="no"?>
<!DOCTYPE svg PUBLIC "-//W3C//DTD SVG 20010904//EN"
 "http://www.w3.org/TR/2001/REC-SVG-20010904/DTD/svg10.dtd">
<svg version="1.0" xmlns="http://www.w3.org/2000/svg"
 width="200.000000pt" height="200.000000pt" viewBox="0 0 200.000000 200.000000"
 preserveAspectRatio="xMidYMid meet">
<metadata>
Atuk Logo, Copyrigth (C) Alan Quimbita, Esteban Molina, Shakira Cofre
</metadata>
<g transform="translate(0.000000,200.000000) scale(0.100000,-0.100000)"
fill="#042f66" stroke="none">
<path d="M506 1765 c5 -11 -1 -15 -23 -15 -16 0 -35 -6 -42 -12 -11 -10 -13
-10 -7 0 5 8 -1 12 -18 12 -20 0 -24 -4 -19 -17 4 -10 9 -20 12 -23 3 -3 11
-14 17 -24 6 -11 30 -26 53 -34 29 -10 41 -19 37 -28 -8 -21 15 -64 34 -64 26
0 55 -111 41 -152 -10 -28 -7 -38 33 -104 55 -90 86 -190 86 -278 0 -55 -4
-70 -22 -88 l-23 -23 39 -3 c21 -2 43 1 48 6 5 5 12 82 15 171 3 88 9 161 12
161 4 0 80 13 171 30 90 16 164 29 166 27 1 -1 13 -25 27 -52 18 -36 51 -73
116 -128 82 -70 91 -81 91 -112 0 -24 -6 -37 -20 -45 -37 -20 -24 -40 25 -40
38 0 45 3 45 20 0 14 7 20 24 20 21 0 24 6 30 53 13 114 11 122 -55 200 -53
63 -133 193 -98 160 20 -19 29 -16 29 12 0 19 -14 34 -62 67 l-63 42 -180 9
c-234 10 -262 21 -301 113 -34 81 -76 121 -145 139 -69 19 -80 19 -73 0z"/>
<path d="M703 753 l-73 -4 0 -34 c0 -34 1 -35 39 -35 37 0 39 -2 45 -37 3 -21
6 -74 6 -118 0 -44 3 -124 7 -177 l6 -98 40 0 40 0 -7 220 -7 220 40 0 c42 0
51 13 35 54 -6 17 -4 17 -171 9z"/>
<path d="M945 648 c-4 -62 -5 -164 -3 -226 l3 -114 33 -29 c26 -23 41 -29 80
-29 105 0 121 37 129 301 l6 199 -41 0 -42 0 -1 -42 c0 -24 -4 -116 -7 -206
-6 -148 -9 -165 -27 -178 -18 -13 -22 -13 -37 6 -15 19 -16 42 -11 226 l6 204
-40 0 -41 0 -7 -112z"/>
<path d="M445 731 l-40 -6 -17 -230 c-9 -126 -17 -240 -17 -252 -1 -21 4 -23
43 -23 l45 0 3 48 c3 46 3 47 40 50 36 3 37 2 48 -37 10 -39 13 -41 50 -41 21
0 41 3 43 8 2 4 -18 79 -45 167 -27 88 -60 197 -74 243 -13 45 -28 81 -32 81
-4 -1 -25 -5 -47 -8z"/>
<path d="M1281 518 c-13 -123 -25 -235 -28 -250 -5 -27 -4 -28 40 -28 l45 0 6
78 c13 142 13 142 65 -55 12 -43 12 -43 57 -43 43 0 45 1 38 23 -4 12 -21 73
-39 136 l-32 114 60 109 c32 60 58 110 56 112 -2 2 -21 6 -41 9 l-38 6 -50
-92 c-47 -84 -51 -89 -46 -52 3 22 8 66 12 98 l6 57 -44 0 -44 0 -23 -222z"/>
</g>
</svg>
